HIERARCHY
ROOT Hips
{
	OFFSET 0.000000 0.000000 0.000000
	CHANNELS 6 Xposition Yposition Zposition Xrotation Yrotation Zrotation
	JOINT Thigh.L
	{
		OFFSET 0.054214 0.030721 -0.091931
		CHANNELS 3 Xrotation Yrotation Zrotation
		JOINT Shin.L
		{
			OFFSET 0.053251 0.015721 -0.411258
			CHANNELS 3 Xrotation Yrotation Zrotation
			JOINT Foot.L
			{
				OFFSET -0.041505 0.032921 -0.432088
				CHANNELS 3 Xrotation Yrotation Zrotation
				JOINT Toe.L
				{
					OFFSET 0.044723 -0.119426 -0.063857
					CHANNELS 3 Xrotation Yrotation Zrotation
					End Site
					{
						OFFSET 0.000000 0.050000 0.000000
					}
				}
			}
		}
	}
	JOINT Thigh.R
	{
		OFFSET -0.059507 0.027993 -0.102329
		CHANNELS 3 Xrotation Yrotation Zrotation
		JOINT Shin.R
		{
			OFFSET -0.042622 0.021186 -0.394943
			CHANNELS 3 Xrotation Yrotation Zrotation
			JOINT Foot.R
			{
				OFFSET 0.015592 0.021416 -0.441018
				CHANNELS 3 Xrotation Yrotation Zrotation
				JOINT Toe.R
				{
					OFFSET -0.037068 -0.120199 -0.063802
					CHANNELS 3 Xrotation Yrotation Zrotation
					End Site
					{
						OFFSET 0.000000 0.050000 0.000000
					}
				}
			}
		}
	}
	JOINT Spine
	{
		OFFSET -0.002059 0.019558 0.109334
		CHANNELS 3 Xrotation Yrotation Zrotation
		JOINT Spine.2
		{
			OFFSET 0.006718 0.002889 0.134636
			CHANNELS 3 Xrotation Yrotation Zrotation
			JOINT Chest
			{
				OFFSET -0.010383 -0.023060 0.049380
				CHANNELS 3 Xrotation Yrotation Zrotation
				JOINT Neck
				{
					OFFSET -0.009439 0.029035 0.163637
					CHANNELS 3 Xrotation Yrotation Zrotation
					JOINT Head
					{
						OFFSET 0.022309 -0.022109 0.165431
						CHANNELS 3 Xrotation Yrotation Zrotation
						End Site
						{
							OFFSET 0.000000 0.050000 0.000000
						}
					}
				}
				JOINT Clavicle.L
				{
					OFFSET 0.043330 0.008323 0.083643
					CHANNELS 3 Xrotation Yrotation Zrotation
					JOINT UpperArm.L
					{
						OFFSET 0.106594 0.014782 0.061803
						CHANNELS 3 Xrotation Yrotation Zrotation
						JOINT ForeArm.L
						{
							OFFSET 0.264518 0.035127 -0.075598
							CHANNELS 3 Xrotation Yrotation Zrotation
							JOINT Hand.L
							{
								OFFSET 0.263811 0.006268 0.021235
								CHANNELS 3 Xrotation Yrotation Zrotation
								JOINT Thumb1.L
								{
									OFFSET 0.154580 0.002841 0.009625
									CHANNELS 3 Xrotation Yrotation Zrotation
									JOINT Thumb2.L
									{
										OFFSET 0.029895 0.000710 0.002406
										CHANNELS 3 Xrotation Yrotation Zrotation
										End Site
										{
											OFFSET 0.024912 0.000592 0.002005
										}
									}
								}
								JOINT Index1.L
								{
									OFFSET 0.137580 0.002841 0.009625
									CHANNELS 3 Xrotation Yrotation Zrotation
									JOINT Index2.L
									{
										OFFSET 0.029895 0.000710 0.002406
										CHANNELS 3 Xrotation Yrotation Zrotation
										JOINT Index3.L
										{
											OFFSET 0.021923 0.000521 0.001765
											CHANNELS 3 Xrotation Yrotation Zrotation
											End Site
											{
												OFFSET 0.017937 0.000426 0.001444
											}
										}
									}
								}
								JOINT Middle1.L
								{
									OFFSET 0.119580 0.002841 0.009625
									CHANNELS 3 Xrotation Yrotation Zrotation
									JOINT Middle2.L
									{
										OFFSET 0.030891 0.000734 0.002487
										CHANNELS 3 Xrotation Yrotation Zrotation
										JOINT Middle3.L
										{
											OFFSET 0.021923 0.000521 0.001765
											CHANNELS 3 Xrotation Yrotation Zrotation
											End Site
											{
												OFFSET 0.017937 0.000426 0.001444
											}
										}
									}
								}
								JOINT Ring1.L
								{
									OFFSET 0.101580 0.002841 0.009625
									CHANNELS 3 Xrotation Yrotation Zrotation
									JOINT Ring2.L
									{
										OFFSET 0.028898 0.000687 0.002326
										CHANNELS 3 Xrotation Yrotation Zrotation
										JOINT Ring3.L
										{
											OFFSET 0.019930 0.000474 0.001604
											CHANNELS 3 Xrotation Yrotation Zrotation
											End Site
											{
												OFFSET 0.016940 0.000402 0.001364
											}
										}
									}
								}
								JOINT Pinky1.L
								{
									OFFSET 0.085580 0.002841 0.009625
									CHANNELS 3 Xrotation Yrotation Zrotation
									JOINT Pinky2.L
									{
										OFFSET 0.023916 0.000568 0.001925
										CHANNELS 3 Xrotation Yrotation Zrotation
										JOINT Pinky3.L
										{
											OFFSET 0.016940 0.000402 0.001364
											CHANNELS 3 Xrotation Yrotation Zrotation
											End Site
											{
												OFFSET 0.013951 0.000331 0.001123
											}
										}
									}
								}
							}
						}
					}
				}
				JOINT Clavicle.R
				{
					OFFSET -0.041398 0.014408 0.083145
					CHANNELS 3 Xrotation Yrotation Zrotation
					JOINT UpperArm.R
					{
						OFFSET -0.092028 0.009678 0.057348
						CHANNELS 3 Xrotation Yrotation Zrotation
						JOINT ForeArm.R
						{
							OFFSET -0.280605 0.022550 -0.042846
							CHANNELS 3 Xrotation Yrotation Zrotation
							JOINT Hand.R
							{
								OFFSET -0.260513 0.018839 -0.003403
								CHANNELS 3 Xrotation Yrotation Zrotation
								JOINT Thumb1.R
								{
									OFFSET -0.154677 0.008654 -0.001563
									CHANNELS 3 Xrotation Yrotation Zrotation
									JOINT Thumb2.R
									{
										OFFSET -0.029919 0.002164 -0.000391
										CHANNELS 3 Xrotation Yrotation Zrotation
										End Site
										{
											OFFSET -0.024933 0.001803 -0.000326
										}
									}
								}
								JOINT Index1.R
								{
									OFFSET -0.137677 0.008654 -0.001563
									CHANNELS 3 Xrotation Yrotation Zrotation
									JOINT Index2.R
									{
										OFFSET -0.029919 0.002164 -0.000391
										CHANNELS 3 Xrotation Yrotation Zrotation
										JOINT Index3.R
										{
											OFFSET -0.021941 0.001587 -0.000287
											CHANNELS 3 Xrotation Yrotation Zrotation
											End Site
											{
												OFFSET -0.017952 0.001298 -0.000234
											}
										}
									}
								}
								JOINT Middle1.R
								{
									OFFSET -0.119677 0.008654 -0.001563
									CHANNELS 3 Xrotation Yrotation Zrotation
									JOINT Middle2.R
									{
										OFFSET -0.030917 0.002236 -0.000404
										CHANNELS 3 Xrotation Yrotation Zrotation
										JOINT Middle3.R
										{
											OFFSET -0.021941 0.001587 -0.000287
											CHANNELS 3 Xrotation Yrotation Zrotation
											End Site
											{
												OFFSET -0.017952 0.001298 -0.000234
											}
										}
									}
								}
								JOINT Ring1.R
								{
									OFFSET -0.101677 0.008654 -0.001563
									CHANNELS 3 Xrotation Yrotation Zrotation
									JOINT Ring2.R
									{
										OFFSET -0.028922 0.002091 -0.000378
										CHANNELS 3 Xrotation Yrotation Zrotation
										JOINT Ring3.R
										{
											OFFSET -0.019946 0.001442 -0.000261
											CHANNELS 3 Xrotation Yrotation Zrotation
											End Site
											{
												OFFSET -0.016954 0.001226 -0.000221
											}
										}
									}
								}
								JOINT Pinky1.R
								{
									OFFSET -0.085677 0.008654 -0.001563
									CHANNELS 3 Xrotation Yrotation Zrotation
									JOINT Pinky2.R
									{
										OFFSET -0.023935 0.001731 -0.000313
										CHANNELS 3 Xrotation Yrotation Zrotation
										JOINT Pinky3.R
										{
											OFFSET -0.016954 0.001226 -0.000221
											CHANNELS 3 Xrotation Yrotation Zrotation
											End Site
											{
												OFFSET -0.013962 0.001010 -0.000182
											}
										}
									}
								}
							}
						}
					}
				}
			}
		}
	}
}
MOTION
Frames: 4
Frame Time: 0.04166667
0.009075 1.129027 1.030988 -9.625997 -0.185827 2.748253 16.573787 5.052670 -0.361470 2.958419 -0.605003 -20.095783 -16.510445 -1.568916 6.747170 2.037520 -4.930781 0.070593 -23.554494 -1.252595 5.124854 13.245543 -0.562570 -3.522703 -1.687733 -8.428119 -9.234077 1.851902 -0.639149 -0.445615 10.317782 2.670590 -3.622093 4.642908 -7.040577 -4.572665 -6.377973 3.137256 -1.264941 5.448254 -2.584010 -7.076112 10.971834 -2.490397 -8.116908 5.685015 17.254953 -1.251069 15.665662 44.611488 -32.245673 9.951418 -0.332260 -24.044950 1.303657 -3.414822 -9.128337 0.000000 0.000000 0.000000 0.000000 0.000000 0.000000 0.000000 0.000000 0.000000 0.000000 0.000000 0.000000 0.000000 0.000000 0.000000 0.000000 0.000000 0.000000 0.000000 0.000000 0.000000 0.000000 0.000000 0.000000 0.000000 0.000000 0.000000 0.000000 0.000000 0.000000 0.000000 0.000000 0.000000 0.000000 0.000000 0.000000 0.000000 0.000000 0.000000 0.000000 0.000000 0.000000 2.411400 -16.127476 -0.586964 30.130245 -49.896124 24.019822 4.866578 -2.695765 23.225981 -5.438730 -1.983331 5.244087 0.000000 0.000000 0.000000 0.000000 0.000000 0.000000 0.000000 0.000000 0.000000 0.000000 0.000000 0.000000 0.000000 0.000000 0.000000 0.000000 0.000000 0.000000 0.000000 0.000000 0.000000 0.000000 0.000000 0.000000 0.000000 0.000000 0.000000 0.000000 0.000000 0.000000 0.000000 0.000000 0.000000 0.000000 0.000000 0.000000 0.000000 0.000000 0.000000 0.000000 0.000000 0.000000
0.014258 1.143792 1.026570 -10.069930 -0.396112 3.695095 19.287835 4.570227 0.617576 2.875779 -0.912982 -20.802320 -18.659590 -1.733570 6.074651 2.090324 -4.475461 0.067427 -23.212554 -1.432975 4.548774 6.828591 0.170976 -3.864975 -1.338112 -9.574214 -9.341482 1.927471 -0.299342 -0.452938 10.168545 2.763141 -4.006519 4.665182 -7.279789 -4.901745 -6.195913 3.055417 -1.481153 5.097885 -2.552433 -7.737734 10.748276 -2.669677 -8.260749 5.483695 17.242475 -1.544277 15.009273 44.257195 -32.240821 9.928039 -0.536362 -25.224200 1.763329 -4.030971 -9.477888 0.000000 0.000000 0.000000 0.000000 0.000000 0.000000 0.000000 0.000000 0.000000 0.000000 0.000000 0.000000 0.000000 0.000000 0.000000 0.000000 0.000000 0.000000 0.000000 0.000000 0.000000 0.000000 0.000000 0.000000 0.000000 0.000000 0.000000 0.000000 0.000000 0.000000 0.000000 0.000000 0.000000 0.000000 0.000000 0.000000 0.000000 0.000000 0.000000 0.000000 0.000000 0.000000 2.194282 -16.504835 -0.924259 29.818231 -49.649552 23.081406 4.680034 -2.771165 22.968908 -4.574322 -2.026178 5.088957 0.000000 0.000000 0.000000 0.000000 0.000000 0.000000 0.000000 0.000000 0.000000 0.000000 0.000000 0.000000 0.000000 0.000000 0.000000 0.000000 0.000000 0.000000 0.000000 0.000000 0.000000 0.000000 0.000000 0.000000 0.000000 0.000000 0.000000 0.000000 0.000000 0.000000 0.000000 0.000000 0.000000 0.000000 0.000000 0.000000 0.000000 0.000000 0.000000 0.000000 0.000000 0.000000
0.017225 1.166998 1.021753 -9.512250 -0.231978 4.709794 20.832531 3.865879 1.003234 4.400486 -1.437488 -21.580390 -20.636002 -1.995829 6.000111 1.867223 -4.535104 -0.021754 -23.527314 -1.913688 4.458363 6.280575 0.274712 -4.081453 -1.278889 -9.250190 -9.821742 1.891050 -0.142171 -0.376453 9.627213 2.381359 -4.295382 4.631956 -7.385688 -5.174010 -5.956365 3.114048 -1.672847 4.860596 -2.615441 -8.407312 10.427350 -2.725701 -8.555813 5.382475 17.440645 -1.638117 14.859730 44.089659 -32.392850 9.953744 -1.042355 -25.998995 2.550878 -4.198509 -9.835084 0.000000 0.000000 0.000000 0.000000 0.000000 0.000000 0.000000 0.000000 0.000000 0.000000 0.000000 0.000000 0.000000 0.000000 0.000000 0.000000 0.000000 0.000000 0.000000 0.000000 0.000000 0.000000 0.000000 0.000000 0.000000 0.000000 0.000000 0.000000 0.000000 0.000000 0.000000 0.000000 0.000000 0.000000 0.000000 0.000000 0.000000 0.000000 0.000000 0.000000 0.000000 0.000000 2.015405 -16.879004 -1.188772 29.490271 -49.494657 22.177390 4.603793 -2.749474 22.437628 -4.042184 -2.200383 5.114535 0.000000 0.000000 0.000000 0.000000 0.000000 0.000000 0.000000 0.000000 0.000000 0.000000 0.000000 0.000000 0.000000 0.000000 0.000000 0.000000 0.000000 0.000000 0.000000 0.000000 0.000000 0.000000 0.000000 0.000000 0.000000 0.000000 0.000000 0.000000 0.000000 0.000000 0.000000 0.000000 0.000000 0.000000 0.000000 0.000000 0.000000 0.000000 0.000000 0.000000 0.000000 0.000000
0.018998 1.195353 1.017828 -8.390753 0.178385 5.458894 21.560989 2.864009 1.128148 7.225277 -1.821512 -22.002267 -20.761771 -1.559690 6.361776 1.669964 -4.824831 -0.101694 -24.232708 -2.649375 4.760592 9.840798 -0.170601 -4.189245 -0.950978 -7.961178 -10.229066 1.741668 -0.068027 -0.222382 8.861984 1.687069 -4.543426 4.537218 -7.419611 -5.317553 -5.850736 3.229272 -1.813943 4.784413 -2.652010 -8.892164 10.386619 -2.570880 -8.925464 5.425310 17.948074 -1.552810 14.897046 44.250257 -32.101192 9.890377 -1.577096 -26.277066 2.787463 -3.873756 -10.158646 0.000000 0.000000 0.000000 0.000000 0.000000 0.000000 0.000000 0.000000 0.000000 0.000000 0.000000 0.000000 0.000000 0.000000 0.000000 0.000000 0.000000 0.000000 0.000000 0.000000 0.000000 0.000000 0.000000 0.000000 0.000000 0.000000 0.000000 0.000000 0.000000 0.000000 0.000000 0.000000 0.000000 0.000000 0.000000 0.000000 0.000000 0.000000 0.000000 0.000000 0.000000 0.000000 1.968868 -17.356119 -1.270879 28.964167 -49.217448 21.292953 4.948816 -2.612264 21.738992 -3.811416 -2.447208 5.164601 0.000000 0.000000 0.000000 0.000000 0.000000 0.000000 0.000000 0.000000 0.000000 0.000000 0.000000 0.000000 0.000000 0.000000 0.000000 0.000000 0.000000 0.000000 0.000000 0.000000 0.000000 0.000000 0.000000 0.000000 0.000000 0.000000 0.000000 0.000000 0.000000 0.000000 0.000000 0.000000 0.000000 0.000000 0.000000 0.000000 0.000000 0.000000 0.000000 0.000000 0.000000 0.000000
